<svg viewBox="0 0 1024 1024" xmlns="http://www.w3.org/2000/svg">
  <!-- Light background with gold border -->
  <rect x="20" y="20" width="984" height="984" rx="215" fill="#ffcc00" stroke="#1a1a17" stroke-width="40"/>
  <!-- Canary with dark body (light-mode: charcoal on cream) -->
  <g transform="translate(115, 160) scale(6.8)">
    <path d="M40,66 L6,52 L20,82 Z" fill="#1a1a17"/>
    <path d="M66,30 Q70,12 79,16 Q74,24 80,28 Z" fill="#1a1a17"/>
    <path d="M78,26 Q86,11 94,18 Q86,24 90,30 Z" fill="#1a1a17"/>
    <ellipse cx="54" cy="70" rx="31" ry="28" fill="#1a1a17"/>
    <circle cx="83" cy="43" r="20" fill="#1a1a17"/>
    <path d="M48,58 C66,57 78,70 77,90 C63,95 44,87 40,70 Z" fill="#ffffff" opacity="0.11"/>
    <path d="M100,39 L118,44 L100,50 Z" fill="#f2792b"/>
    <circle cx="86" cy="41" r="6.4" fill="#ffcc00"/>
    <circle cx="86" cy="41" r="3.8" fill="#22c55e"/>
  </g>
</svg>
